<svg width="144" height="24" viewBox="0 0 144 24" fill="none" xmlns="http://www.w3.org/2000/svg">
<path d="M22.4905 1.67832C22.4905 1.19347 22.6624 0.792539 23.0062 0.475523C23.3501 0.158507 23.7704 0 24.267 0C24.8019 0 25.2317 0.158507 25.5565 0.475523C25.8812 0.792539 26.0436 1.19347 26.0436 1.67832C26.0436 2.14452 25.8812 2.54545 25.5565 2.88112C25.2317 3.19813 24.8019 3.35664 24.267 3.35664C23.7704 3.35664 23.3501 3.19813 23.0062 2.88112C22.6624 2.54545 22.4905 2.14452 22.4905 1.67832Z" fill="#020E19"/>
<path d="M25.3559 5.87413C25.6233 6.06061 25.7571 6.39627 25.7571 6.88112V18.7133C25.6233 18.7506 25.4323 18.7972 25.184 18.8531C24.9547 18.9091 24.6968 18.9371 24.4103 18.9371C23.8754 18.9371 23.4743 18.8345 23.2068 18.6294C22.9394 18.4242 22.8057 18.0886 22.8057 17.6224V5.76224C22.9394 5.72494 23.1304 5.68765 23.3787 5.65035C23.6271 5.59441 23.8945 5.56643 24.1811 5.56643C24.716 5.56643 25.1076 5.669 25.3559 5.87413Z" fill="#020E19"/>
<path d="M5.81687 18.6294C5.56853 18.4056 5.44436 18.0513 5.44436 17.5664V4.1958H0.343854C0.267442 4.08392 0.19103 3.92541 0.114618 3.72028C0.038206 3.4965 0 3.2634 0 3.02098C0 2.61072 0.0955151 2.30303 0.286545 2.0979C0.496679 1.87412 0.773672 1.76224 1.11753 1.76224H13.5536C13.63 1.87412 13.7064 2.04196 13.7828 2.26573C13.8592 2.47086 13.8974 2.68531 13.8974 2.90909C13.8974 3.31935 13.7924 3.63636 13.5822 3.86014C13.3912 4.08391 13.1238 4.1958 12.7799 4.1958H8.42443V18.7133C8.30982 18.7506 8.11878 18.7972 7.85134 18.8531C7.5839 18.9091 7.31646 18.9371 7.04902 18.9371C6.49503 18.9371 6.08431 18.8345 5.81687 18.6294Z" fill="#020E19"/>
<path d="M15.1929 18.8531C15.4413 18.7972 15.6323 18.7506 15.766 18.7133V8.47552C16.1863 8.2331 16.7116 8.0373 17.342 7.88811C17.9915 7.72028 18.7079 7.63636 19.4911 7.63636C19.7968 7.63636 20.0929 7.65501 20.3794 7.69231C20.6851 7.7296 20.9334 7.7669 21.1244 7.80419C21.22 7.65501 21.2964 7.48718 21.3537 7.3007C21.4301 7.11422 21.4683 6.90909 21.4683 6.68531C21.4683 5.77156 20.6373 5.31468 18.9753 5.31468C17.9438 5.31468 16.9886 5.42657 16.1099 5.65035C15.2503 5.87413 14.553 6.15385 14.0181 6.48951C13.6169 6.75058 13.3113 7.0303 13.1012 7.32867C12.9101 7.60839 12.8146 7.97203 12.8146 8.41958V17.6224C12.8146 18.0886 12.9483 18.4242 13.2158 18.6294C13.4832 18.8345 13.8844 18.9371 14.4193 18.9371C14.7058 18.9371 14.9637 18.9091 15.1929 18.8531Z" fill="#020E19"/>
<path fill-rule="evenodd" clip-rule="evenodd" d="M31.5733 18.8252C32.2419 19.0303 32.9678 19.1329 33.751 19.1329C35.0309 19.1329 36.1675 18.8811 37.1609 18.3776C38.1734 17.8555 38.9566 17.0816 39.5106 16.0559C40.0837 15.0117 40.3702 13.7156 40.3702 12.1678C40.3702 10.5641 40.0646 9.25874 39.4533 8.25175C38.842 7.24476 38.0014 6.49883 36.9317 6.01399C35.881 5.52914 34.6966 5.28671 33.3785 5.28671C32.4042 5.28671 31.5255 5.40793 30.7423 5.65035C29.9782 5.87413 29.3287 6.14452 28.7938 6.46154C28.3926 6.70396 28.1061 6.95571 27.9341 7.21678C27.7813 7.45921 27.7049 7.77622 27.7049 8.16783V22.6573C27.7049 23.1422 27.8386 23.4872 28.1061 23.6923C28.3735 23.8974 28.7747 24 29.3096 24C29.5961 24 29.854 23.972 30.0832 23.9161C30.3316 23.8788 30.5226 23.8322 30.6563 23.7762V18.4835C30.9209 18.6049 31.2265 18.7188 31.5733 18.8252ZM30.6563 16.0487C30.875 16.1882 31.1138 16.3212 31.3727 16.4476C31.9267 16.69 32.5762 16.8112 33.3212 16.8112C34.5629 16.8112 35.5467 16.4382 36.2726 15.6923C37.0176 14.9464 37.3901 13.7716 37.3901 12.1678C37.3901 11.049 37.2087 10.1632 36.8457 9.51049C36.4827 8.83916 35.9956 8.35431 35.3843 8.05594C34.773 7.75758 34.1044 7.60839 33.3785 7.60839C32.7672 7.60839 32.2419 7.68298 31.8025 7.83217C31.3631 7.98135 30.9811 8.14918 30.6563 8.33566V16.0487Z" fill="#020E19"/>
<path fill-rule="evenodd" clip-rule="evenodd" d="M47.2077 5.28671C48.9842 5.28671 50.3883 5.669 51.4199 6.43357C52.4706 7.17949 52.9959 8.36364 52.9959 9.98601V16.5035C52.9959 16.9324 52.9004 17.2681 52.7093 17.5105C52.5183 17.7529 52.2509 17.9674 51.907 18.1538C51.4103 18.4336 50.7608 18.6667 49.9585 18.8531C49.1753 19.0583 48.287 19.1608 47.2936 19.1608C45.4406 19.1608 43.9888 18.8159 42.9381 18.1259C41.9066 17.4172 41.3908 16.3823 41.3908 15.021C41.3908 13.7902 41.8015 12.8485 42.6229 12.1958C43.4444 11.5245 44.6097 11.1235 46.1188 10.993L50.1304 10.6014V9.95804C50.1304 9.11888 49.8534 8.51282 49.2995 8.13986C48.7455 7.7669 47.9909 7.58042 47.0357 7.58042C46.2716 7.58042 45.5266 7.68298 44.8007 7.88811C44.0939 8.09324 43.4635 8.32634 42.9095 8.58741C42.7376 8.43823 42.5847 8.26107 42.451 8.05594C42.3173 7.83217 42.2504 7.59907 42.2504 7.35664C42.2504 6.77855 42.5752 6.34033 43.2247 6.04196C43.7596 5.79953 44.3709 5.61305 45.0586 5.48252C45.7654 5.35198 46.4818 5.28671 47.2077 5.28671ZM47.2936 16.9231C47.9813 16.9231 48.564 16.8578 49.0416 16.7273C49.5382 16.5781 49.9012 16.4382 50.1304 16.3077V12.6993L46.9498 13.007C46.071 13.0816 45.4024 13.2774 44.944 13.5944C44.5046 13.8928 44.2849 14.3403 44.2849 14.9371C44.2849 15.5524 44.5332 16.0373 45.0299 16.3916C45.5266 16.7459 46.2812 16.9231 47.2936 16.9231Z" fill="#020E19"/>
<path fill-rule="evenodd" clip-rule="evenodd" d="M66.9726 0.6993C67.24 0.88578 67.3737 1.22144 67.3737 1.70629V16.4196C67.3737 16.8112 67.2878 17.1282 67.1159 17.3706C66.9439 17.6131 66.6669 17.8462 66.2849 18.0699C65.8646 18.331 65.282 18.5734 64.5369 18.7972C63.7919 19.0396 62.9323 19.1608 61.958 19.1608C60.5062 19.1608 59.2359 18.9184 58.147 18.4336C57.0772 17.9487 56.2367 17.2028 55.6254 16.1958C55.0332 15.1702 54.7371 13.8648 54.7371 12.2797C54.7371 10.6573 55.0332 9.33333 55.6254 8.30769C56.2176 7.28205 57.0295 6.52681 58.061 6.04196C59.0926 5.53846 60.2197 5.28671 61.4423 5.28671C62.1682 5.28671 62.8463 5.37995 63.4767 5.56643C63.8352 5.67246 64.1504 5.79356 64.4223 5.92973V0.615383C64.5561 0.578087 64.7471 0.531467 64.9954 0.475523C65.2438 0.419579 65.5016 0.391608 65.7691 0.391608C66.3231 0.391608 66.7242 0.494172 66.9726 0.6993ZM63.6487 7.97203C63.9337 8.09127 64.1916 8.22374 64.4223 8.36945V16.1958C64.1358 16.3636 63.7919 16.5128 63.3908 16.6434C63.0087 16.7739 62.5216 16.8392 61.9294 16.8392C60.6495 16.8392 59.6275 16.4755 58.8633 15.7483C58.0992 15.021 57.7172 13.8741 57.7172 12.3077C57.7172 11.1702 57.8987 10.2564 58.2616 9.56643C58.6246 8.87646 59.1117 8.38228 59.723 8.08391C60.3534 7.7669 61.0411 7.60839 61.7861 7.60839C62.4929 7.60839 63.1138 7.7296 63.6487 7.97203Z" fill="#020E19"/>
<path d="M80.0001 5.42657C80.4204 5.42657 80.7642 5.52914 81.0317 5.73427C81.2991 5.92075 81.4328 6.21911 81.4328 6.62937C81.4328 6.89044 81.3278 7.36597 81.1176 8.05594C80.9075 8.74592 80.6305 9.55711 80.2867 10.4895C79.9619 11.4033 79.5989 12.3636 79.1978 13.3706C78.7966 14.3776 78.3859 15.338 77.9656 16.2517C77.5645 17.1655 77.192 17.9394 76.8481 18.5734C76.7144 18.6853 76.4851 18.7786 76.1604 18.8531C75.8547 18.9277 75.5204 18.965 75.1575 18.965C74.7372 18.965 74.3647 18.8998 74.04 18.7692C73.7152 18.6573 73.4955 18.4802 73.3809 18.2378C73.1708 17.8462 72.9033 17.296 72.5786 16.5874C72.2538 15.8788 71.9004 15.0676 71.5184 14.1538C71.1554 13.2401 70.7829 12.2984 70.4008 11.3287C70.0379 10.3403 69.694 9.3986 69.3693 8.5035C69.0636 7.60839 68.8153 6.81585 68.6243 6.12587C68.7771 5.92075 68.9968 5.75291 69.2833 5.62238C69.5698 5.49184 69.8659 5.42657 70.1716 5.42657C70.5919 5.42657 70.9262 5.51981 71.1745 5.70629C71.4419 5.89277 71.6521 6.22844 71.8049 6.71329L73.4096 11.5524C73.5624 12 73.7439 12.5221 73.954 13.1189C74.1832 13.7156 74.4029 14.303 74.6131 14.8811C74.8232 15.4592 74.9951 15.9441 75.1288 16.3357H75.2434C75.9121 14.5641 76.5424 12.7832 77.1347 10.993C77.7459 9.18415 78.2713 7.42191 78.7106 5.70629C79.0736 5.51981 79.5034 5.42657 80.0001 5.42657Z" fill="#020E19"/>
<path fill-rule="evenodd" clip-rule="evenodd" d="M91.8351 6.43357C90.8035 5.669 89.3995 5.28671 87.6229 5.28671C86.897 5.28671 86.1806 5.35198 85.4738 5.48252C84.7861 5.61305 84.1748 5.79953 83.6399 6.04196C82.9904 6.34033 82.6656 6.77855 82.6656 7.35664C82.6656 7.59907 82.7325 7.83217 82.8662 8.05594C83 8.26107 83.1528 8.43823 83.3247 8.58741C83.8787 8.32634 84.5091 8.09324 85.2159 7.88811C85.9418 7.68298 86.6868 7.58042 87.451 7.58042C88.4061 7.58042 89.1607 7.7669 89.7147 8.13986C90.2686 8.51282 90.5456 9.11888 90.5456 9.95804V10.6014L86.534 10.993C85.0249 11.1235 83.8596 11.5245 83.0382 12.1958C82.2167 12.8485 81.806 13.7902 81.806 15.021C81.806 16.3823 82.3218 17.4172 83.3534 18.1259C84.404 18.8159 85.8559 19.1608 87.7088 19.1608C88.7022 19.1608 89.5905 19.0583 90.3737 18.8531C91.176 18.6667 91.8255 18.4336 92.3222 18.1538C92.6661 17.9674 92.9335 17.7529 93.1245 17.5105C93.3156 17.2681 93.4111 16.9324 93.4111 16.5035V9.98601C93.4111 8.36364 92.8858 7.17949 91.8351 6.43357ZM89.4568 16.7273C88.9792 16.8578 88.3966 16.9231 87.7088 16.9231C86.6964 16.9231 85.9418 16.7459 85.4451 16.3916C84.9485 16.0373 84.7001 15.5524 84.7001 14.9371C84.7001 14.3403 84.9198 13.8928 85.3592 13.5944C85.8176 13.2774 86.4862 13.0816 87.365 13.007L90.5456 12.6993V16.3077C90.3164 16.4382 89.9535 16.5781 89.4568 16.7273Z" fill="#020E19"/>
<path d="M105.869 6.51748C106.92 7.31935 107.445 8.54079 107.445 10.1818V18.7133C107.311 18.7506 107.12 18.7972 106.872 18.8531C106.624 18.9091 106.366 18.9371 106.098 18.9371C105.544 18.9371 105.134 18.8345 104.866 18.6294C104.618 18.4242 104.494 18.0886 104.494 17.6224V10.2937C104.494 9.3613 104.226 8.68065 103.691 8.25175C103.156 7.82284 102.44 7.60839 101.542 7.60839C100.874 7.60839 100.272 7.69231 99.737 7.86014C99.2021 8.02797 98.7437 8.21445 98.3616 8.41958V18.7133C98.2279 18.7506 98.0369 18.7972 97.7885 18.8531C97.5593 18.9091 97.3014 18.9371 97.0149 18.9371C96.48 18.9371 96.0788 18.8345 95.8114 18.6294C95.5439 18.4242 95.4102 18.0886 95.4102 17.6224V8.36364C95.4102 7.93473 95.4962 7.58974 95.6681 7.32867C95.8591 7.04895 96.1552 6.78788 96.5564 6.54545C97.0913 6.22844 97.7885 5.93939 98.6482 5.67832C99.5078 5.41725 100.472 5.28671 101.542 5.28671C103.395 5.28671 104.838 5.69697 105.869 6.51748Z" fill="#020E19"/>
<path d="M113.337 8.83916C114.158 8.0373 115.171 7.63636 116.374 7.63636C117.1 7.63636 117.712 7.7296 118.208 7.91608C118.705 8.10256 119.154 8.32634 119.555 8.58741C119.765 8.45688 119.937 8.28904 120.071 8.08391C120.224 7.87879 120.3 7.64569 120.3 7.38462C120.3 6.82518 119.908 6.34033 119.125 5.93007C118.361 5.50117 117.368 5.28671 116.145 5.28671C114.865 5.28671 113.69 5.54779 112.621 6.06993C111.551 6.59207 110.701 7.36597 110.07 8.39161C109.44 9.41725 109.125 10.704 109.125 12.2517C109.125 13.7809 109.421 15.0583 110.013 16.0839C110.624 17.1096 111.465 17.8741 112.535 18.3776C113.604 18.8811 114.837 19.1329 116.231 19.1329C117.473 19.1329 118.485 18.9464 119.268 18.5734C120.052 18.1818 120.443 17.697 120.443 17.1189C120.443 16.8392 120.367 16.5967 120.214 16.3916C120.061 16.1865 119.861 16.0093 119.612 15.8601C119.23 16.1026 118.781 16.3263 118.266 16.5315C117.75 16.718 117.119 16.8112 116.374 16.8112C115.114 16.8112 114.082 16.4196 113.28 15.6364C112.496 14.8531 112.105 13.7249 112.105 12.2517C112.105 10.7599 112.516 9.62238 113.337 8.83916Z" fill="#020E19"/>
<path fill-rule="evenodd" clip-rule="evenodd" d="M125.422 15.8881C124.77 15.3551 124.328 14.6162 124.098 13.6717L132.5 12.5035C132.92 12.4476 133.245 12.317 133.474 12.1119C133.703 11.8881 133.818 11.5431 133.818 11.0769C133.818 9.95804 133.56 8.96037 133.044 8.08391C132.528 7.20746 131.802 6.52681 130.866 6.04196C129.949 5.53846 128.889 5.28671 127.686 5.28671C126.769 5.28671 125.909 5.4359 125.107 5.73427C124.304 6.03263 123.607 6.47086 123.015 7.04895C122.423 7.62704 121.955 8.34499 121.611 9.2028C121.286 10.042 121.124 11.0117 121.124 12.1119C121.124 13.641 121.429 14.9371 122.041 16C122.652 17.0443 123.512 17.8368 124.62 18.3776C125.728 18.8998 127.017 19.1608 128.488 19.1608C129.386 19.1608 130.188 19.0676 130.895 18.8811C131.621 18.6946 132.194 18.4336 132.614 18.0979C133.035 17.7622 133.245 17.3893 133.245 16.979C133.245 16.7179 133.168 16.4755 133.015 16.2517C132.882 16.028 132.7 15.8508 132.471 15.7203C132.07 16 131.535 16.2611 130.866 16.5035C130.198 16.7459 129.462 16.8671 128.66 16.8671C127.323 16.8671 126.243 16.5408 125.422 15.8881ZM131.038 10.6014L123.911 11.5814C123.968 10.3228 124.329 9.34344 124.992 8.64336C125.699 7.89744 126.587 7.52447 127.657 7.52447C128.708 7.52447 129.52 7.82284 130.093 8.41958C130.666 8.99767 130.981 9.72494 131.038 10.6014Z" fill="#020E19"/>
<path d="M137.725 18.8531C137.973 18.7972 138.164 18.7506 138.298 18.7133V8.47552C138.718 8.2331 139.243 8.0373 139.874 7.88811C140.523 7.72028 141.24 7.63636 142.023 7.63636C142.328 7.63636 142.625 7.65501 142.911 7.69231C143.217 7.7296 143.465 7.7669 143.656 7.80419C143.752 7.65501 143.828 7.48718 143.885 7.3007C143.962 7.11422 144 6.90909 144 6.68531C144 5.77156 143.169 5.31468 141.507 5.31468C140.475 5.31468 139.52 5.42657 138.642 5.65035C137.782 5.87413 137.085 6.15385 136.55 6.48951C136.149 6.75058 135.843 7.0303 135.633 7.32867C135.442 7.60839 135.346 7.97203 135.346 8.41958V17.6224C135.346 18.0886 135.48 18.4242 135.747 18.6294C136.015 18.8345 136.416 18.9371 136.951 18.9371C137.238 18.9371 137.495 18.9091 137.725 18.8531Z" fill="#020E19"/>
</svg>
